<?xml version="1.0"?>
<svg xmlns="http://www.w3.org/2000/svg" xmlns:xlink="http://www.w3.org/1999/xlink" width="512" height="512" viewBox="0 0 128 128"><defs><linearGradient id="a" x1="118.314" y1="118.314" x2="9.686" y2="9.686" gradientUnits="userSpaceOnUse"><stop offset="0" stop-color="#7075e0"/><stop offset="1" stop-color="#82ddd2"/></linearGradient></defs><path d="M121.5,13.6H101a1.751,1.751,0,0,0-1.75,1.75v4.738l-4.471-1.939a1.746,1.746,0,0,0-1.392,0l-6.22,2.7-6.221-2.7a1.746,1.746,0,0,0-1.392,0l-6.221,2.7-6.22-2.7a1.748,1.748,0,0,0-1.393,0l-6.22,2.7-6.22-2.7a1.748,1.748,0,0,0-1.393,0l-4.47,1.939V15.346a1.751,1.751,0,0,0-1.75-1.75H6.5a1.751,1.751,0,0,0-1.75,1.75v97.308A1.751,1.751,0,0,0,6.5,114.4H18.167a1.75,1.75,0,0,0,0-3.5H8.25V100.875H16v1.25a1.751,1.751,0,0,0,1.75,1.75H31.917V110.9h-5a1.75,1.75,0,0,0,0,3.5h18.75a1.751,1.751,0,0,0,1.75-1.75v-4.738l4.47,1.939a1.748,1.748,0,0,0,1.393,0l6.22-2.7,6.22,2.7a1.748,1.748,0,0,0,1.393,0l6.22-2.7,6.221,2.7a1.743,1.743,0,0,0,1.392,0l6.221-2.7,6.22,2.7a1.746,1.746,0,0,0,1.392,0l4.471-1.939v4.738A1.751,1.751,0,0,0,101,114.4h20.5a1.751,1.751,0,0,0,1.75-1.75V35.208a1.75,1.75,0,0,0-3.5,0v75.7h-17V17.1h17v3.737a1.75,1.75,0,0,0,3.5,0V15.346A1.751,1.751,0,0,0,121.5,13.6ZM54.333,22.417,57.75,23.9v80.2l-3.417,1.481ZM61.25,23.9l3.417-1.481v83.166L61.25,104.1Zm6.917-1.481L71.583,23.9v80.2l-3.416,1.481ZM75.083,23.9,78.5,22.417v83.166L75.083,104.1ZM82,22.417,85.417,23.9v80.2L82,105.583ZM88.917,23.9l3.416-1.481v83.166L88.917,104.1ZM17.75,33.625H31.917v2.417H17.75A1.75,1.75,0,0,0,16,37.792v1.25H8.25V30.625H16v1.25A1.751,1.751,0,0,0,17.75,33.625Zm14.167,8.417H19.5v-2.5H31.917Zm-14.167,3.5H31.917v7.75H17.75A1.75,1.75,0,0,0,16,55.042v1.25H8.25V42.542H16v1.25A1.751,1.751,0,0,0,17.75,45.542Zm14.167,13.75H19.5v-2.5H31.917ZM16,59.792v1.25a1.751,1.751,0,0,0,1.75,1.75H31.917v2.416H17.75A1.751,1.751,0,0,0,16,66.958v1.25H8.25V59.792Zm3.5,8.916H31.917v2.5H19.5ZM31.917,30.125H19.5v-2.5H31.917ZM8.25,71.708H16v1.25a1.75,1.75,0,0,0,1.75,1.75H31.917v7.75H17.75A1.751,1.751,0,0,0,16,84.208v1.25H8.25ZM19.5,85.958H31.917v2.5H19.5ZM31.917,17.1v7.029H17.75A1.751,1.751,0,0,0,16,25.875v1.25H8.25V17.1ZM8.25,97.375V88.958H16v1.25a1.75,1.75,0,0,0,1.75,1.75H31.917v2.417H17.75A1.751,1.751,0,0,0,16,96.125v1.25Zm11.25,3v-2.5H31.917v2.5ZM43.917,110.9h-8.5V17.1h8.5V110.9Zm3.5-87.006,3.416-1.481v83.166L47.417,104.1ZM99.25,104.1l-3.417,1.481V22.417L99.25,23.9Zm24-77.352v2.458a1.75,1.75,0,0,1-3.5,0V26.75a1.75,1.75,0,0,1,3.5,0Zm-12,.542a4.75,4.75,0,1,0,4.75,4.75A4.755,4.755,0,0,0,111.25,27.292Zm0,6a1.25,1.25,0,1,1,1.25-1.25A1.252,1.252,0,0,1,111.25,33.292Zm0,9.979a4.75,4.75,0,1,0,4.75,4.75A4.756,4.756,0,0,0,111.25,43.271Zm0,6a1.25,1.25,0,1,1,1.25-1.25A1.252,1.252,0,0,1,111.25,49.271Zm0,9.979A4.75,4.75,0,1,0,116,64,4.756,4.756,0,0,0,111.25,59.25Zm0,6A1.25,1.25,0,1,1,112.5,64,1.252,1.252,0,0,1,111.25,65.25Zm0,9.979a4.75,4.75,0,1,0,4.75,4.75A4.756,4.756,0,0,0,111.25,75.229Zm0,6a1.25,1.25,0,1,1,1.25-1.25A1.252,1.252,0,0,1,111.25,81.229Zm0,9.979a4.75,4.75,0,1,0,4.75,4.75A4.756,4.756,0,0,0,111.25,91.208Zm0,6a1.25,1.25,0,1,1,1.25-1.25A1.251,1.251,0,0,1,111.25,97.208Z" fill="url(#a)"/></svg>
